<svg xmlns="http://www.w3.org/2000/svg" width="102" height="103" viewBox="0 0 102 103"><g><g><g><path fill="#0489a8" d="M50.24 0c10.729.063 21.017 4.077 29.574 10.546 8.436 6.379 14.215 15.359 17.83 25.296 3.725 10.237 5.987 21.292 2.925 31.746-3.115 10.635-10.692 19.344-19.756 25.72A53.049 53.049 0 0 1 50.24 103c-10.957-.004-21.754-3.193-30.56-9.71C10.93 86.81 4.638 77.491 1.644 67.025-1.278 56.816-.042 46.074 3.29 35.989c3.318-10.043 8.73-19.351 17.126-25.787C28.963 3.65 39.469-.062 50.24.001z"/></g><g><g><g><path fill="#fff" d="M69.437 29.08v14.162c0 9.21-6.512 16.925-15.172 18.788v8.8c2.345.33 4.398.938 5.977 1.775 1.426.757 3.126 2.067 3.126 4.016 0 3.46-5.653 6.07-13.15 6.07-7.496 0-13.149-2.61-13.149-6.07 0-1.949 1.7-3.26 3.126-4.016 1.58-.837 3.632-1.445 5.978-1.775v-8.8C37.512 60.167 31 52.451 31 43.242V29.08c0-1.48 1.045-3.592 6.024-5.252C40.564 22.65 45.25 22 50.22 22c4.969 0 9.655.65 13.194 1.83 4.98 1.66 6.024 3.771 6.024 5.25zm-36.414 0c0 .922 1.278 1.998 3.42 2.88a1.011 1.011 0 0 1 .626.935v9.335h3.035a1.012 1.012 0 0 1 1.011 1.012v5.057h3.035c.2 0 .395.06.56.17l3.46 2.307-1.687-4.5H44.15a1.012 1.012 0 0 1-1.012-1.011v-5.058h-3.034a1.012 1.012 0 0 1-1.012-1.011v-5.068a1.012 1.012 0 0 1 1.232-.988c2.925.653 6.347.998 9.895.998 10.654 0 17.195-2.946 17.195-5.057 0-2.112-6.541-5.058-17.195-5.058s-17.196 2.946-17.196 5.058zm17.196 46.53v-2.023h2.023V62.354a19.281 19.281 0 0 1-4.046 0v12.244h-2.023v-1.723c-4.456.683-7.08 2.377-7.08 3.746 0 1.91 4.757 4.046 11.126 4.046 6.368 0 11.126-2.136 11.126-4.046 0-1.37-2.625-3.063-7.08-3.746v1.723a1.012 1.012 0 0 1-1.012 1.012zm17.195-32.368V32.399c-.909.669-2.195 1.33-4.001 1.933-3.54 1.18-8.225 1.83-13.194 1.83-3.053.013-6.1-.253-9.104-.795v2.817h3.035a1.012 1.012 0 0 1 1.011 1.012v5.057h2.023a1.012 1.012 0 0 1 .947.657l3.035 8.092a1.012 1.012 0 0 1-1.508 1.196l-5.815-3.876h-3.74a1.01 1.01 0 0 1-1.01-1.011v-5.058h-3.035a1.012 1.012 0 0 1-1.012-1.011v-9.684a11.452 11.452 0 0 1-2.023-1.164v10.848c0 9.481 7.714 17.195 17.196 17.195 9.481 0 17.195-7.714 17.195-17.195z"/></g></g></g></g></g></svg>