<svg xmlns="http://www.w3.org/2000/svg" width="103" height="103" viewBox="0 0 103 103"><g><g><g><path fill="#0489a8" d="M51.47.006C62.6-.154 73.633 3.044 82.574 9.65c8.883 6.565 14.901 16.183 18.119 26.729 3.171 10.395 3.065 21.45-.265 31.796-3.34 10.374-9.472 19.778-18.372 26.104-8.848 6.29-19.723 9.01-30.586 8.696-10.633-.309-20.564-4.411-29.32-10.432C13.204 86.395 4.648 78.87 1.383 68.541c-3.251-10.283-.201-21.17 3.255-31.386 3.42-10.11 7.995-19.977 16.37-26.621C29.63 3.696 40.456.164 51.47.006z"/></g><g><g><g><g><path fill="#fff" d="M79.848 48.155l-7.507 8.3.832.768a3.45 3.45 0 0 1 1.108 2.538c0 .84-.307 1.693-.927 2.357l-.445.477a3.448 3.448 0 0 1-2.087 1.056c.058.256.096.516.096.777a3.447 3.447 0 0 1-.927 2.356l-.444.476a3.492 3.492 0 0 1-2.55 1.102c-.291 0-.58-.049-.865-.122a3.419 3.419 0 0 1-.887 1.912l-.442.475a3.49 3.49 0 0 1-2.553 1.104 3.487 3.487 0 0 1-2.366-.922l-1.08-.996a3.43 3.43 0 0 1-.779 1.41l-.445.476a3.477 3.477 0 0 1-2.548 1.101 3.47 3.47 0 0 1-2.367-.924l-2.786-2.578-2.05 2.141a3.484 3.484 0 0 1-2.52 1.07c-.859 0-1.73-.316-2.4-.953l-.472-.45a3.433 3.433 0 0 1-.905-1.486 3.499 3.499 0 0 1-4.33-.372l-.472-.449a3.421 3.421 0 0 1-.961-1.675 3.507 3.507 0 0 1-3.759-.68l-.472-.45.001.001a3.447 3.447 0 0 1-1.075-2.507 3.436 3.436 0 0 1 .431-1.644 3.452 3.452 0 0 1-1.534-.831l-.47-.447a3.442 3.442 0 0 1-1.077-2.507c0-.856.318-1.721.958-2.389l2.32-2.42-4.891-4.173a3.406 3.406 0 0 1-.332-4.867l5.243-5.872a4.251 4.251 0 0 1 1.577-1.085 5.005 5.005 0 0 1 1.87-.367c.556 0 1.118.097 1.643.32l2.88 1.229c.468.203 1.212.336 1.952.332.74.004 1.484-.129 1.952-.332l2.878-1.228c.77-.325 1.647-.46 2.525-.463.971.003 1.933.165 2.75.566l1.679.836.493-.346c.893-.619 2.003-.888 3.1-.894.764.002 1.524.136 2.205.464l4.224 2.046c.373.184.937.301 1.52.299.752.005 1.53-.194 1.983-.483l4.314-2.684A3.688 3.688 0 0 1 72.613 36c1.127.002 2.254.48 2.995 1.422l4.424 5.66c.552.71.801 1.569.802 2.416 0 .948-.312 1.91-.986 2.657zm-47.166 11.63l5.129-5.344c.185-.267.28-.574.281-.89-.001-.422-.487-1.14-.487-1.14l-.47-.449a1.58 1.58 0 0 0-1.09-.432c-.424 0-.837.162-1.147.485l-4.752 4.96c-.291.303-.433.689-.434 1.084.001.422.162.832.489 1.14l.471.448c.304.288.693.43 1.09.431a1.6 1.6 0 0 0 .92-.292zm9.213-1.376c.29-.304.432-.69.434-1.085a1.56 1.56 0 0 0-.488-1.14l-.472-.45a1.575 1.575 0 0 0-1.09-.431c-.403 0-.793.151-1.096.442-.053.064-6.388 6.657-6.388 6.657-.29.304-.432.69-.432 1.085 0 .422.162.833.486 1.14l.001.001.472.449c.305.288.693.43 1.09.431a1.58 1.58 0 0 0 1.146-.484zm3.094 4.995c.289-.303.433-.69.434-1.086a1.564 1.564 0 0 0-.487-1.14l-.474-.448a1.575 1.575 0 0 0-1.09-.432c-.387 0-.76.142-1.057.41l-4.412 4.604c-.23.285-.35.627-.35.98 0 .421.163.832.488 1.14l.473.449c.305.288.693.431 1.091.432a1.574 1.574 0 0 0 1.145-.485zm4.142 3.938c.29-.303.433-.69.435-1.086a1.563 1.563 0 0 0-.486-1.14l-.474-.448a1.576 1.576 0 0 0-1.09-.432 1.58 1.58 0 0 0-1.147.485l-2.675 2.793a1.56 1.56 0 0 0-.434 1.085c0 .422.163.833.487 1.14l.472.45c.305.288.693.43 1.09.431a1.577 1.577 0 0 0 1.146-.484zm22.753-8.732l-5.62-5.195A48.487 48.487 0 0 0 62.45 50.3l-4.855-3.48c-.398-.293-1.06-.487-1.716-.483-.56-.003-1.1.136-1.458.354l-1.754 1.054a3.681 3.681 0 0 1-1.896.517c-1.147-.003-2.295-.506-3.03-1.484l-.388-.521v.001a3.384 3.384 0 0 1-.676-2.03 3.398 3.398 0 0 1 1.45-2.78l2.935-2.063-.769-.384c-.427-.218-1.165-.37-1.9-.366-.666-.002-1.335.118-1.779.311l-2.877 1.228c-.812.342-1.752.482-2.7.485-.947-.003-1.89-.143-2.7-.485l-2.88-1.228a2.3 2.3 0 0 0-.895-.168c-.383-.001-.792.08-1.152.226-.36.147-.668.358-.876.591l-5.243 5.872a1.52 1.52 0 0 0 .148 2.177l4.968 4.239 1.122-1.17a3.482 3.482 0 0 1 2.52-1.071c.858 0 1.728.317 2.4.955l.47.447a3.447 3.447 0 0 1 1.065 2.4c.1-.01.198-.03.299-.03.858 0 1.728.317 2.4.954l.472.45a3.45 3.45 0 0 1 1.075 2.506c0 .388-.074.775-.205 1.147.637.119 1.249.416 1.75.892l.473.448s1.076 1.597 1.075 2.508c0 .015-.004.032-.004.048.066-.004.133-.02.2-.02a3.479 3.479 0 0 1 2.398.954l.474.449a3.447 3.447 0 0 1 1.075 2.506c0 .537-.14 1.072-.391 1.565l2.887 2.674c.302.28.684.416 1.074.418a1.577 1.577 0 0 0 1.157-.499l.444-.477a1.554 1.554 0 0 0-.029-2.155l-3.316-3.06-.025-.024v-.001l1.288-1.386h.002l6.621 6.114c.302.278.684.416 1.076.417a1.58 1.58 0 0 0 1.16-.5l.444-.475c.281-.302.419-.682.419-1.07a1.56 1.56 0 0 0-.484-1.133l-6.634-6.135 1.29-1.384 7.477 6.912c.3.278.684.416 1.074.417.43-.001.85-.168 1.16-.5l.442-.475a1.573 1.573 0 0 0-.082-2.226l-8-7.411 1.293-1.384 7.473 6.912c.304.28.686.417 1.076.418.43 0 .85-.168 1.16-.5l.443-.475c.282-.302.42-.682.421-1.07a1.566 1.566 0 0 0-.501-1.154zm6.555-11.718c.312-.341.5-.863.499-1.393 0-.474-.148-.931-.403-1.255l-4.424-5.661c-.33-.43-.914-.695-1.497-.693-.344 0-.675.088-.95.26l-4.315 2.685c-.875.537-1.937.765-2.988.77-.817-.002-1.63-.143-2.35-.489l-4.224-2.046c-.345-.17-.848-.276-1.375-.273-.758-.006-1.556.222-2.004.547l-5.189 3.645c-.425.3-.645.762-.647 1.238.001.315.097.626.302.903l.002.001.386.52c.329.448.918.722 1.507.72.33 0 .646-.083.916-.245l1.753-1.053c.737-.44 1.591-.624 2.439-.627.996.004 2.003.256 2.826.84l4.854 3.48a50.016 50.016 0 0 1 3.998 3.262l3.398 3.141z"/></g></g></g></g></g></g></svg>