<svg xmlns="http://www.w3.org/2000/svg" width="102" height="103" viewBox="0 0 102 103"><g><g><g><path fill="#0489a8" d="M50.24 0c10.729.063 21.017 4.077 29.574 10.546 8.436 6.379 14.215 15.359 17.83 25.296 3.725 10.237 5.987 21.292 2.925 31.746-3.115 10.635-10.692 19.344-19.756 25.72A53.049 53.049 0 0 1 50.24 103c-10.957-.004-21.754-3.193-30.56-9.71C10.93 86.81 4.638 77.491 1.644 67.025-1.278 56.816-.042 46.074 3.29 35.989c3.318-10.043 8.73-19.351 17.126-25.787C28.963 3.65 39.469-.062 50.24.001z"/></g><g><g><g><g><path fill="#fff" d="M76.875 36.32a.818.818 0 0 1 .463.736v29.722c0 .314-.18.6-.463.737l-25.35 12.238a.82.82 0 0 1-.712 0l-25.35-12.238a.818.818 0 0 1-.463-.737V37.056c0-.314.18-.6.462-.736L50.813 24.08a.818.818 0 0 1 .711 0zM44.386 29l23.31 11.253c.05.024.096.055.14.088l6.803-3.285-23.47-11.33zm-6.637 3.247l23.426 11.309 4.8-2.317-23.436-11.314zm24.29 12.708v8.565l4.484-2.164V42.79zm13.663 21.31V38.359l-7.543 3.642v9.868c0 .314-.18.6-.462.737l-6.12 2.954a.817.817 0 0 1-1.173-.737V45.01l-.011-.014-24.569-11.861-8.125 3.922 17.707 8.548a.818.818 0 0 1-.711 1.473l-18.06-8.718v27.906l23.716 11.448V49.808l-2.161-1.043a.818.818 0 1 1 .711-1.473l2.268 1.094 5.763-2.782a.818.818 0 0 1 .712 1.473l-5.657 2.73v27.906z"/></g></g></g><g><g><g><path fill="#fff" d="M33.384 63.098l-3.72-1.796a.818.818 0 1 0-.712 1.473l3.72 1.796a.818.818 0 0 0 .711-1.473z"/></g></g></g><g><g><g><path fill="#fff" d="M36.813 60.868l-7.14-3.446a.818.818 0 1 0-.71 1.473l7.139 3.446a.815.815 0 0 0 1.092-.38.818.818 0 0 0-.381-1.093z"/></g></g></g></g></g></g></svg>