<svg xmlns="http://www.w3.org/2000/svg" width="103" height="100" viewBox="0 0 103 100"><g><g><g><path fill="#0489a8" d="M52.298.014c10.656.21 21.084 3.083 29.786 9.197 8.782 6.171 15.635 14.83 18.901 25.013 3.253 10.145 2.285 20.978-.893 31.146-3.213 10.278-8.376 20.163-17.128 26.505-8.762 6.349-19.821 8.094-30.666 8.125-10.87.03-21.917-1.714-30.792-7.953C12.564 85.761 6.975 76.015 3.5 65.694 0 55.298-1.441 44.118 1.85 33.656 5.163 23.118 12.413 14.17 21.64 8.018 30.635 2.021 41.47-.2 52.299.014z"/></g><g><g><g><g><path fill="#fff" d="M28 67.323c.012-.192.071-.378.173-.54l4.48-6.273V41.267c0-1.33.94-2.476 2.244-2.737l-3.057-7.377a1.866 1.866 0 0 1 1.007-2.435l7.742-3.2a1.882 1.882 0 0 1 2.429.994l4.529 10.931v-8.272c.005-.083.016-.166.033-.247l2.549-9.34a2.149 2.149 0 0 1 4.147 0l2.509 9.213c.035.122.062.247.081.373l-.009 11.164c.348-.828.714-1.656 1.117-2.485a63.569 63.569 0 0 1 1.937-3.665 5.699 5.699 0 0 1 2.8-7.584c4.688-2.408 5.744-4.04 5.93-5.894a.93.93 0 0 1 1.721-.39c.138.228 3.345 5.618 1.978 10.9a10.15 10.15 0 0 1-4.784 6.16 33.09 33.09 0 0 1-.368 1.1h1.757a2.792 2.792 0 0 1 2.792 2.79V60.51l4.48 6.272c.102.163.161.349.173.54v2.793a3.722 3.722 0 0 1-3.722 3.722H31.722A3.722 3.722 0 0 1 28 70.115zm46.529.93H60.955l-1.588 1.589a.93.93 0 0 1-.658.273H45.68a.93.93 0 0 1-.658-.273l-1.589-1.589H29.861v1.862c0 1.028.833 1.86 1.861 1.86h40.945a1.861 1.861 0 0 0 1.862-1.86zm-16.205 0l1.181-1.181-.537-1.61H45.421l-.537 1.61 1.182 1.182zm3.018-32.835a61.426 61.426 0 0 0-1.274 2.407l.307.163a19.636 19.636 0 0 0 4.296 1.837c.104-.253.215-.506.308-.756.228-.578.44-1.157.635-1.731-.926-.413-1.872-.84-2.81-1.262zm2.22-7.166a3.88 3.88 0 0 0-1.91 5.266l1.916.863c1.016.457 2.042.917 3.071 1.377a8.344 8.344 0 0 0 3.897-5.001c.5-2.5.223-5.094-.796-7.432-.973 1.736-2.908 3.247-6.178 4.928zm-6.714 17.643v3.747h2.612a69.06 69.06 0 0 0 4.467-8.096 22.088 22.088 0 0 1-4.434-1.923c-.079-.043-.156-.082-.234-.124a43.762 43.762 0 0 0-2.411 6.396zm-1.861 3.747l-.005-3.83v-.02c0-.01.005-.023.005-.033l.01-13.803c-.548.424-1.19.713-1.872.843v2.885a.93.93 0 0 1-1.86 0v-2.885a4.412 4.412 0 0 1-1.862-.838v17.681h1.861v-9.306a.93.93 0 0 1 1.861 0v9.306zm-.91-23.706a4.2 4.2 0 0 1-3.752 0l-.866 3.173a3.088 3.088 0 0 0 2.74 1.922 3.088 3.088 0 0 0 2.742-1.92zm-1.597-5.86a.299.299 0 0 0-.555 0l-1.105 4.047c.424.235.896.37 1.38.394a3.181 3.181 0 0 0 1.382-.393zM33.557 30.439l7.962 19.203h6.023v-7.476l-.883-2.01-1.079-2.606-3.443 1.426a.93.93 0 0 1-.713-1.72l3.444-1.425-.712-1.72-1.723.714a.93.93 0 0 1-.713-1.72l1.724-.714-.713-1.72-3.443 1.426a.93.93 0 1 1-.712-1.719l3.443-1.425-.712-1.72zm.957 29.44h35.362V41.266a.93.93 0 0 0-.93-.93h-2.473a62.428 62.428 0 0 1-4.819 9.305h3.569a.93.93 0 0 1 0 1.861H39.167a.93.93 0 1 1 0-1.861h.338l-3.858-9.306h-.202a.93.93 0 0 0-.931.93zm-3.775 6.513h12.41l.718-2.155a.93.93 0 0 1 .883-.636h14.89c.4 0 .756.256.883.636l.718 2.155h12.41l-3.324-4.652H34.063z"/></g><g><path fill="#fff" d="M66.126 34.05a.93.93 0 0 0 .496-.143 6.98 6.98 0 0 0 3.086-4.693.93.93 0 0 0-1.852-.186 5.167 5.167 0 0 1-2.233 3.304.93.93 0 0 0 .499 1.717z"/></g></g></g></g></g></g></svg>