<svg xmlns="http://www.w3.org/2000/svg" width="103" height="100" viewBox="0 0 103 100"><g><g><g><path fill="#0489a8" d="M52.298.014c10.656.21 21.084 3.083 29.786 9.197 8.782 6.171 15.635 14.83 18.901 25.013 3.253 10.145 2.285 20.978-.893 31.146-3.213 10.278-8.376 20.163-17.128 26.505-8.762 6.349-19.821 8.094-30.666 8.125-10.87.03-21.917-1.714-30.792-7.953C12.564 85.761 6.975 76.015 3.5 65.694 0 55.298-1.441 44.118 1.85 33.656 5.163 23.118 12.413 14.17 21.64 8.018 30.635 2.021 41.47-.2 52.299.014z"/></g><g><g><g><g><g><g><path fill="#fff" d="M72.801 66.251a29.192 29.192 0 0 1-3.642 3.09l.94 8.779a3.23 3.23 0 0 1-.702 2.386c-1.792 2.222-5.737 1.246-6.048-1.664 0-.01-.645-6.027-.645-6.027a28.846 28.846 0 0 1-10.303 1.887c-3.526 0-6.954-.631-10.159-1.835l-.8 6.055c-.383 2.93-4.332 3.803-6.087 1.514a3.229 3.229 0 0 1-.643-2.403l.334-2.528a.948.948 0 0 1 1.879.248l-.334 2.526c-.235 1.779 2.736 2.186 2.973.395l3.651-27.644-2.972-.393-2.74 20.736a.947.947 0 1 1-1.878-.248l.217-1.645A29.136 29.136 0 0 1 32 66.251c-5.449-5.449-8.45-12.694-8.45-20.4 0-7.707 3.001-14.952 8.45-20.4C37.45 20 44.695 17 52.4 17c4.213 0 8.273.887 12.069 2.638a.947.947 0 1 1-.794 1.72 26.733 26.733 0 0 0-11.274-2.463c-7.2 0-13.97 2.804-19.06 7.895-5.092 5.091-7.896 11.86-7.896 19.06 0 8.755 4.198 16.544 10.683 21.471l1.045-7.914a20.314 20.314 0 0 1-5.171-13.556c0-5.464 2.16-10.432 5.67-14.097l.446-3.37a1.605 1.605 0 0 1 1.798-1.38l3.62.478a20.275 20.275 0 0 1 8.865-2.03c1.96 0 3.856.278 5.652.796.043-.913.324-1.772 1.005-2.42a3.22 3.22 0 0 1 1.05-.667c1.93-.751 4.17.549 4.396 2.665l.42 3.936c4.79 3.736 7.876 9.558 7.876 16.089 0 4.971-1.788 9.533-4.755 13.076l.878 8.206c6.344-4.936 10.434-12.64 10.434-21.282 0-4.58-1.16-8.997-3.283-12.893-.04.116-.078.228-.11.333-.162.514-.632.86-1.171.86s-1.01-.346-1.17-.86c-.436-1.392-1.546-3.87-4.075-4.815a1.215 1.215 0 0 1-.794-1.148c0-.516.311-.967.794-1.147.301-.113.582-.248.844-.4a27.018 27.018 0 0 0-2.996-2.334.947.947 0 1 1 1.056-1.573 29.044 29.044 0 0 1 3.421 2.69c.956-1.07 1.48-2.34 1.75-3.198a1.22 1.22 0 0 1 1.17-.86c.539 0 1.01.346 1.17.86.436 1.392 1.546 3.869 4.075 4.814.483.181.794.631.794 1.148 0 .517-.311.967-.794 1.148-1.354.506-2.301 1.452-2.956 2.435a28.81 28.81 0 0 1 4.17 14.94c0 7.706-3.002 14.951-8.45 20.4zm5.283-38.923c-1.632-.995-2.659-2.475-3.291-3.782-.633 1.307-1.66 2.786-3.291 3.782 1.632.996 2.658 2.475 3.29 3.783.633-1.308 1.66-2.787 3.292-3.783zM65.22 32.52l1.811 16.932.72 6.72a18.395 18.395 0 0 0 3.154-10.321c0-5.232-2.183-9.962-5.685-13.331zm-6.041 9.865c-.02.411.155.816.47 1.082l1.02.867a3.216 3.216 0 0 1 1.12 2.119l.276 2.577 2.982-.319-2.427-22.683c-.11-1.022-1.365-1.55-2.177-.893a1.343 1.343 0 0 0-.487.971l-.778 16.28zm-11.68-14.379l2.168.286c.425.056.802.274 1.062.614.26.34.373.76.317 1.185l-1.463 11.081c-.26 1.96-1.597 3.637-3.408 4.27a.587.587 0 0 0-.374.483l-.583 4.413-1.56 11.816a18.387 18.387 0 0 0 8.743 2.201c3.322 0 6.44-.883 9.139-2.422l-1.258-11.759-.377-3.52c-.116-.811-.906-1.252-1.484-1.743a3.252 3.252 0 0 1-1.135-2.616l.673-14.094a18.425 18.425 0 0 0-5.558-.855c-1.697 0-3.34.23-4.902.66zm-8.428 17.03a.587.587 0 0 0-.236-.563c-1.584-1.082-2.44-3.048-2.182-5.009l.55-4.158a18.4 18.4 0 0 0-3.307 10.545c0 4.106 1.345 7.904 3.617 10.977l.975-7.378zm4.392 4.115l.46-3.475a2.465 2.465 0 0 1 1.626-2.022c1.143-.4 1.989-1.472 2.155-2.73l1.425-10.792-1.77-.233-1.19 9.015a.948.948 0 1 1-1.879-.248l1.191-9.015-1.875-.248-1.191 9.015a.948.948 0 1 1-1.879-.248l1.191-9.015-1.77-.234-1.425 10.791c-.166 1.259.372 2.514 1.372 3.197a2.465 2.465 0 0 1 1.046 2.375l-.46 3.475zm19.03 21.692l-.735-6.87a20.272 20.272 0 0 1-9.357 2.277 20.27 20.27 0 0 1-9.007-2.102l-.895 6.773a26.811 26.811 0 0 0 9.902 1.886c3.567 0 6.973-.7 10.092-1.964zm5.721 7.478l-2.966-27.725-2.982.319 2.967 27.725c.08.743.748 1.283 1.492 1.204.446-.048.881-.137 1.197-.528.227-.281.331-.635.292-.995z"/></g><g><path fill="#fff" d="M31.977 71c0 .492-.297.921-.758 1.093-1.929.722-2.78 2.626-3.115 3.697-.154.49-.602.819-1.115.819-.514 0-.962-.33-1.116-.82-.335-1.07-1.186-2.974-3.116-3.696A1.157 1.157 0 0 1 22 71c0-.492.297-.922.758-1.094 1.929-.721 2.78-2.625 3.115-3.696.154-.49.602-.819 1.116-.819.513 0 .961.329 1.115.819.336 1.07 1.186 2.975 3.116 3.696.46.172.757.602.757 1.094zm-2.738 0c-1.049-.715-1.766-1.672-2.25-2.572-.485.9-1.202 1.858-2.251 2.571 1.049.714 1.766 1.672 2.25 2.572.485-.9 1.202-1.858 2.251-2.572z"/></g></g></g></g></g></g></g></g></svg>