<svg xmlns="http://www.w3.org/2000/svg" width="103" height="103" viewBox="0 0 103 103"><g><g><g><path fill="#0489a8" d="M51.47.006C62.6-.154 73.633 3.044 82.574 9.65c8.883 6.565 14.901 16.183 18.119 26.729 3.171 10.395 3.065 21.45-.265 31.796-3.34 10.374-9.472 19.778-18.372 26.104-8.848 6.29-19.723 9.01-30.586 8.696-10.633-.309-20.564-4.411-29.32-10.432C13.204 86.395 4.648 78.87 1.383 68.541c-3.251-10.283-.201-21.17 3.255-31.386 3.42-10.11 7.995-19.977 16.37-26.621C29.63 3.696 40.456.164 51.47.006z"/></g><g><g><path fill="#fff" d="M27.56 71.08l-1.75 1.016c2.35 4.054 6.712 6.572 11.383 6.572v-2.023a11.176 11.176 0 0 1-9.633-5.565z"/></g><g><path fill="#fff" d="M82.713 59.449v4.046c0 2.082-1.62 3.824-4.248 5.211-2.074 5.974-7.635 9.961-13.996 9.961H50.383c-.658 0-1.318-.056-1.972-.143-3.014 2.603-6.93 4.19-11.215 4.19C27.714 82.713 20 75 20 65.517v-1.012c0-3.203 5.594-5.176 12.226-5.827.646-3.087 5.173-5.688 12.472-7.152a20.107 20.107 0 0 1-3.456-11.297c0-11.155 9.075-20.23 20.23-20.23 11.155 0 20.23 9.075 20.23 20.23 0 5.058-1.878 9.675-4.956 13.226 3.908 1.618 5.968 3.673 5.968 5.993zm-7.499-4.414c-.55.51-1.125.986-1.726 1.433 2.11.8 3.156 1.782 3.156 2.98 0 3.993-12.08 5.058-19.218 5.058-.998 0-2.018-.027-3.044-.066.001.023.01.043.01.066v1.012c0 .316-.031.625-.048.937a71.15 71.15 0 0 0 3.082.074c13.71 0 23.265-3.731 23.265-7.08 0-1.496-2.047-3.125-5.477-4.414zm-25.331 1.753c-4.402.453-7.07 1.201-8.453 1.827 5.304.438 10.054 1.706 12.008 3.76a78.47 78.47 0 0 0 3.988.108c10.727 0 16.898-1.987 17.198-3.051-.058-.162-.814-.851-3.313-1.54a20.092 20.092 0 0 1-9.84 2.568 20.107 20.107 0 0 1-11.588-3.672zM43.265 40.23c0 10.04 8.168 18.207 18.207 18.207 10.039 0 18.207-8.168 18.207-18.207 0-10.04-8.168-18.207-18.207-18.207-10.04 0-18.207 8.168-18.207 18.207zm-8.83 18.285a52.126 52.126 0 0 1 2.76-.078c.433 0 .864.01 1.295.02 1.087-1.886 5.14-2.9 9.21-3.45a20.48 20.48 0 0 1-1.617-1.679c-6.931 1.25-10.67 3.384-11.649 5.187zm-12.412 5.991c0 1.65 5.91 4.046 15.173 4.046 9.262 0 15.172-2.396 15.172-4.046 0-1.65-5.91-4.046-15.172-4.046-9.263 0-15.173 2.397-15.173 4.046zm30.181 3.118c-3.105 1.946-9.079 2.951-15.008 2.951-5.93 0-11.904-1.005-15.01-2.951 1.032 7.37 7.36 13.067 15.01 13.067 7.65 0 13.978-5.696 15.008-13.067zm12.265 9.02a12.74 12.74 0 0 0 11.28-6.752c-4.893 1.779-11.718 2.706-18.323 2.706-1.515 0-3.025-.055-4.506-.147a17.218 17.218 0 0 1-2.633 4.19c.03 0 .063.003.096.003zm16.222-13.15v-.305c-4.123 3.505-13.915 5.363-23.265 5.363-1.102 0-2.208-.032-3.307-.082a17.19 17.19 0 0 1-.461 1.996 72.59 72.59 0 0 0 3.768.11c13.71 0 23.264-3.732 23.264-7.081z"/></g><g><path fill="#fff" d="M61.468 28.09c6.693 0 12.138 5.445 12.138 12.138s-5.445 12.138-12.138 12.138S49.33 46.921 49.33 40.228 54.775 28.09 61.468 28.09zm0 2.023c-5.577 0-10.115 4.538-10.115 10.115 0 5.578 4.538 10.115 10.115 10.115 5.578 0 10.115-4.537 10.115-10.115 0-5.577-4.537-10.115-10.115-10.115z"/></g><g><path fill="#fff" d="M61.47 48.322c4.462 0 8.092-3.63 8.092-8.092H67.54a6.075 6.075 0 0 1-6.069 6.07z"/></g><g><path fill="#fff" d="M61.474 26.073V24.05c-8.923 0-16.184 7.26-16.184 16.184h2.023c0-7.809 6.352-14.161 14.161-14.161z"/></g><g><path fill="#fff" d="M45.43 42.386c.096.725.244 1.452.439 2.159l1.95-.538c-.17-.618-.3-1.253-.383-1.887z"/></g></g></g></g></svg>